<?xml version="1.0" encoding="iso-8859-1"?>
<!-- Generator: Adobe Illustrator 25.0.0, SVG Export Plug-In . SVG Version: 6.00 Build 0)  -->
<svg version="1.1" id="Layer_1" xmlns="http://www.w3.org/2000/svg" xmlns:xlink="http://www.w3.org/1999/xlink" x="0px" y="0px"
	 viewBox="0 0 600 600" style="enable-background:new 0 0 600 600;" xml:space="preserve">
<g>
	<g>
		<path style="fill:#FFEAA7;" d="M515.049,116.328c-1.684,0-3.397-0.455-4.937-1.42c-4.363-2.723-5.692-8.48-2.96-12.851
			l26.896-43.045c2.733-4.354,8.48-5.711,12.852-2.96c4.362,2.723,5.692,8.48,2.959,12.852l-26.895,43.044
			C521.197,114.77,518.155,116.328,515.049,116.328z"/>
	</g>
	<g>
		<path style="fill:#8C95A4;" d="M300,20.202H57.508c-20.604,0-37.306,16.702-37.306,37.306v484.983
			c0,20.603,16.702,37.306,37.306,37.306H300c20.604,0,37.306-16.703,37.306-37.306V374.613V150.774V57.508
			C337.306,36.904,320.604,20.202,300,20.202z"/>
	</g>
	<g>
		<rect x="20.202" y="94.815" style="fill:#39C3FC;" width="317.104" height="410.37"/>
	</g>
	<g>
		<rect x="20.202" y="467.879" style="fill:#148CE0;" width="317.104" height="37.306"/>
	</g>
	<g>
		<path style="fill:#31353D;" d="M206.734,551.818h-55.96c-5.155,0-9.327-4.172-9.327-9.327c0-5.155,4.172-9.327,9.327-9.327h55.96
			c5.155,0,9.327,4.172,9.327,9.327C216.061,547.646,211.889,551.818,206.734,551.818z"/>
	</g>
	<g>
		<path style="fill:#8C95A4;" d="M206.734,244.04l121.15-106.006c18.099-15.837,41.332-24.566,65.382-24.566l0,0
			c24.05,0,47.283,8.73,65.382,24.566l121.15,106.006v223.838H206.734V244.04z"/>
	</g>
	<g>
		<path style="fill:#798699;" d="M458.648,331.393c-2.405,2.104-4.913,4.063-7.49,5.912c-16.811-12.069-37.038-18.652-57.892-18.652
			s-41.081,6.584-57.892,18.652c-2.577-1.849-5.085-3.808-7.49-5.912l-110.49-96.68l-10.659,9.327v205.185h373.064V244.04
			l-10.659-9.327L458.648,331.393z"/>
	</g>
	<g>
		<path style="fill:#B6C1CE;" d="M206.734,244.04l121.15,106.006c18.099,15.837,41.332,24.566,65.382,24.566l0,0
			c24.05,0,47.283-8.73,65.382-24.566l121.15-106.006v223.838H206.734V244.04z"/>
	</g>
	<g>
		<path style="fill:#ECECEC;" d="M458.648,361.873c-18.1-15.837-41.332-24.566-65.382-24.566c-24.051,0-47.282,8.73-65.382,24.566
			l-121.15,106.006h373.064L458.648,361.873z"/>
	</g>
	<g>
		<path style="fill:#31353D;" d="M393.266,253.367c-46.287,0-83.939,37.652-83.939,83.939v18.653
			c0,46.287,37.652,83.939,83.939,83.939h9.327c5.155,0,9.327-4.172,9.327-9.327s-4.172-9.327-9.327-9.327h-9.327
			c-35.995,0-65.286-29.291-65.286-65.286v-18.653c0-35.995,29.291-65.286,65.286-65.286c35.995,0,65.286,29.291,65.286,65.286
			v55.96c0,5.146-4.18,9.327-9.327,9.327c-5.147,0-9.327-4.18-9.327-9.327V355.96v-18.653c0-25.712-20.922-46.633-46.633-46.633
			c-25.712,0-46.633,20.921-46.633,46.633v18.653c0,25.712,20.921,46.633,46.633,46.633c10.538,0,20.161-3.647,27.98-9.565v0.239
			c0,15.429,12.551,27.98,27.98,27.98c15.429,0,27.98-12.551,27.98-27.98v-55.96C477.205,291.019,439.553,253.367,393.266,253.367z
			 M393.266,383.939c-15.429,0-27.98-12.551-27.98-27.98v-18.653c0-15.429,12.551-27.98,27.98-27.98
			c15.429,0,27.98,12.551,27.98,27.98v18.653C421.246,371.389,408.695,383.939,393.266,383.939z"/>
	</g>
	<g>
		<circle style="fill:#FFFFFF;" cx="57.508" cy="132.121" r="9.327"/>
	</g>
	<g>
		<path style="fill:#FFFFFF;" d="M57.508,383.939c-5.155,0-9.327-4.172-9.327-9.327V169.428c0-5.155,4.172-9.327,9.327-9.327
			c5.155,0,9.327,4.172,9.327,9.327v205.185C66.835,379.768,62.663,383.939,57.508,383.939z"/>
	</g>
	<g>
		<path style="fill:#FFEAA7;" d="M489.091,121.392c-1.776,0-3.57-0.51-5.164-1.567l-49.202-32.798
			c-4.289-2.86-5.447-8.643-2.586-12.933c2.85-4.289,8.625-5.437,12.933-2.586l49.202,32.798c4.289,2.86,5.447,8.643,2.586,12.933
			C495.066,119.935,492.106,121.392,489.091,121.392z"/>
	</g>
	<g>
		<path style="fill:#FFEAA7;" d="M373.583,171.459c-1.402,0-2.823-0.319-4.162-0.984c-4.609-2.305-6.476-7.906-4.172-12.514
			l39.346-78.675c2.305-4.609,7.906-6.467,12.514-4.172c4.609,2.305,6.477,7.906,4.172,12.514l-39.346,78.675
			C380.296,169.573,377.008,171.459,373.583,171.459z"/>
	</g>
	<g>
		<path style="fill:#FB5968;" d="M551.818,76.162c-15.429,0-27.98-12.551-27.98-27.98s12.551-27.98,27.98-27.98
			c15.429,0,27.98,12.551,27.98,27.98S567.247,76.162,551.818,76.162z"/>
	</g>
	<g>
		<path style="fill:#FB5968;" d="M505.185,150.774c-15.429,0-27.98-12.551-27.98-27.98s12.551-27.98,27.98-27.98
			c15.429,0,27.98,12.551,27.98,27.98S520.614,150.774,505.185,150.774z"/>
	</g>
	<g>
		<path style="fill:#FB5968;" d="M421.246,94.815c-15.429,0-27.98-12.551-27.98-27.98s12.551-27.98,27.98-27.98
			c15.429,0,27.98,12.551,27.98,27.98S436.675,94.815,421.246,94.815z"/>
	</g>
	<g>
		<path style="fill:#FB5968;" d="M365.286,206.734c-15.429,0-27.98-12.551-27.98-27.98s12.551-27.98,27.98-27.98
			c15.429,0,27.98,12.551,27.98,27.98S380.715,206.734,365.286,206.734z"/>
	</g>
</g>
</svg>
