<?xml version="1.0" encoding="iso-8859-1"?>
<!-- Generator: Adobe Illustrator 25.0.0, SVG Export Plug-In . SVG Version: 6.00 Build 0)  -->
<svg version="1.1" id="Layer_1" xmlns="http://www.w3.org/2000/svg" xmlns:xlink="http://www.w3.org/1999/xlink" x="0px" y="0px"
	 viewBox="0 0 256 256" style="enable-background:new 0 0 256 256;" xml:space="preserve">
<g>
	<g>
		<circle style="fill:#FEA82F;" cx="128.44" cy="120.328" r="109.224"/>
	</g>
	<g>
		<circle style="fill:#FCD770;" cx="128.44" cy="120.328" r="81.918"/>
	</g>
	<g>
		<path style="fill:#B6C1CE;" d="M144.043,57.914l23.405-11.703c23.885,19.204,39.009,48.616,39.009,79.663v0.766
			c0,9.808-1.143,19.436-3.41,36.597H175.25L144.043,57.914z"/>
	</g>
	<g>
		<g>
			<path style="fill:#ECECEC;" d="M167.452,81.319c-1.432,0-2.808-0.788-3.493-2.156c-0.964-1.928-0.183-4.271,1.744-5.234
				l7.802-3.901c1.928-0.956,4.267-0.183,5.234,1.744c0.964,1.928,0.183,4.271-1.744,5.234l-7.802,3.901
				C168.633,81.186,168.039,81.319,167.452,81.319z"/>
		</g>
	</g>
	<g>
		<g>
			<path style="fill:#ECECEC;" d="M179.155,100.823c-1.432,0-2.808-0.788-3.493-2.156c-0.964-1.928-0.183-4.271,1.744-5.234
				l7.802-3.901c1.928-0.96,4.267-0.183,5.234,1.744c0.964,1.928,0.183,4.271-1.744,5.234l-7.802,3.901
				C180.335,100.69,179.741,100.823,179.155,100.823z"/>
		</g>
	</g>
	<g>
		<g>
			<path style="fill:#ECECEC;" d="M190.853,120.328h-7.802c-2.156,0-3.901-1.745-3.901-3.901s1.745-3.901,3.901-3.901h7.802
				c2.156,0,3.901,1.745,3.901,3.901S193.009,120.328,190.853,120.328z"/>
		</g>
	</g>
	<g>
		<g>
			<path style="fill:#ECECEC;" d="M190.853,143.733h-7.802c-2.156,0-3.901-1.745-3.901-3.901s1.745-3.901,3.901-3.901h7.802
				c2.156,0,3.901,1.745,3.901,3.901S193.009,143.733,190.853,143.733z"/>
		</g>
	</g>
	<g>
		<path style="fill:#AFB8C9;" d="M167.448,206.147v-12.721c0-7.045,1.472-13.997,4.335-20.434c0.878-1.975,1.83-4.116,2.796-6.287
			c5.585-12.557,8.473-26.135,8.473-40.062v-0.767c0-27.713-14.577-53.384-38.376-67.583l-0.632-0.377l-2.868-8.603
			c-2.947-8.84-11.219-14.803-20.538-14.803l0,0v27.306l0,0c-7.561,0-14.884,2.651-20.693,7.492L74.112,90.834
			c-7.595,6.329-11.987,15.705-11.987,25.592v11.703h11.703c2.532,0,4.996-0.821,7.022-2.341l3.121-2.341
			c6.077-4.558,13.468-7.022,21.065-7.022h15.603v-7.802v7.802l-15.225,19.792c-15.422,20.048-23.784,44.633-23.784,69.928l0,0
			H167.448z"/>
	</g>
	<g>
		<g>
			<path style="fill:#FFFFFF;" d="M98.49,194.444c-0.206,0-0.412-0.015-0.621-0.05c-2.129-0.343-3.577-2.343-3.234-4.468
				c2.724-16.952,9.657-33.058,20.053-46.57l7.539-9.802c1.314-1.707,3.76-2.03,5.471-0.716c1.71,1.314,2.026,3.764,0.716,5.471
				l-7.539,9.802c-9.607,12.491-16.019,27.378-18.537,43.05C102.029,193.08,100.372,194.444,98.49,194.444z"/>
		</g>
	</g>
	<g>
		<circle style="fill:#31353D;" cx="112.836" cy="85.22" r="7.802"/>
	</g>
	<g>
		<path style="fill:#AFB8C9;" d="M183.052,221.75v-7.802c0-4.309-3.493-7.802-7.802-7.802H81.629c-4.309,0-7.802,3.493-7.802,7.802
			v7.802H183.052z"/>
	</g>
	<g>
		<rect x="73.828" y="213.948" style="fill:#8C95A4;" width="109.224" height="11.703"/>
	</g>
	<g>
		<g>
			<path style="fill:#FFFFFF;" d="M34.819,96.839c-0.362,0-0.728-0.05-1.093-0.156c-2.068-0.606-3.253-2.77-2.651-4.838
				c6.61-22.628,21.063-42.391,40.693-55.64c1.787-1.2,4.209-0.731,5.417,1.051c1.203,1.787,0.735,4.209-1.052,5.417
				c-18.125,12.232-31.47,30.472-37.568,51.359C38.064,95.734,36.51,96.839,34.819,96.839z"/>
		</g>
	</g>
	<g>
		<path style="fill:#AFB8C9;" d="M68.026,221.75h120.828c1.105,0,2,0.895,2,2v21.405H66.026V223.75
			C66.026,222.645,66.921,221.75,68.026,221.75z"/>
	</g>
	<g>
		<rect x="66.026" y="237.353" style="fill:#8C95A4;" width="124.828" height="7.802"/>
	</g>
	<g>
		<circle style="fill:#FFFFFF;" cx="85.53" cy="30.608" r="3.901"/>
	</g>
	<g>
		<path style="fill:#8C95A4;" d="M144.675,58.291l-0.632-0.377l-2.868-8.603c-2.947-8.84-11.22-14.803-20.538-14.803v1.516
			c5.889,2.285,10.654,7.041,12.736,13.286l2.868,8.603l0.632,0.377c23.8,14.199,38.376,39.87,38.376,67.583v0.767
			c0,13.928-2.887,27.505-8.473,40.062c-0.966,2.171-1.918,4.312-2.796,6.287c-2.862,6.438-4.335,13.389-4.335,20.435v4.919H81.951
			c-0.177,2.593-0.322,5.19-0.322,7.802h78.017h7.802v-7.802v-4.919c0-7.046,1.472-13.997,4.335-20.435
			c0.878-1.975,1.83-4.116,2.796-6.287c5.585-12.557,8.473-26.135,8.473-40.062v-0.767C183.052,98.161,168.475,72.49,144.675,58.291
			z"/>
	</g>
</g>
</svg>
