<?xml version="1.0" encoding="iso-8859-1"?>
<!-- Generator: Adobe Illustrator 25.0.0, SVG Export Plug-In . SVG Version: 6.00 Build 0)  -->
<svg version="1.1" id="Layer_1" xmlns="http://www.w3.org/2000/svg" xmlns:xlink="http://www.w3.org/1999/xlink" x="0px" y="0px"
	 viewBox="0 0 256 256" style="enable-background:new 0 0 256 256;" xml:space="preserve">
<g>
	<g>
		<path style="fill:#FEA82F;" d="M238.428,184.667c-1.012-3.808-2.507-7.409-4.441-10.737l4.389-9.059l-11.308-11.309l-9.059,4.389
			c-3.328-1.934-6.93-3.429-10.737-4.441l-3.305-9.517h-15.993l-3.305,9.517c-3.808,1.012-7.409,2.507-10.737,4.441l-9.059-4.389
			l-11.308,11.309l4.389,9.059c-1.934,3.328-3.429,6.93-4.441,10.737l-9.517,3.305v15.993l9.517,3.305
			c1.012,3.808,2.507,7.409,4.441,10.737l-4.389,9.059l11.308,11.309l9.059-4.389c3.328,1.934,6.93,3.429,10.737,4.441l3.305,9.517
			h15.993l3.305-9.517c3.808-1.012,7.409-2.507,10.737-4.441l9.059,4.389l11.308-11.309l-4.389-9.059
			c1.934-3.328,3.429-6.93,4.441-10.737l9.517-3.305v-15.993L238.428,184.667z M195.969,223.956
			c-15.457,0-27.987-12.53-27.987-27.987s12.53-27.987,27.987-27.987s27.987,12.53,27.987,27.987S211.426,223.956,195.969,223.956z"
			/>
	</g>
	<g>
		<path style="fill:#FF8031;" d="M205.538,148.521l-1.573-4.529h-15.993l-3.305,9.517c-3.808,1.012-7.409,2.507-10.737,4.441
			l-9.059-4.389l-11.308,11.309l4.389,9.059c-1.905,3.278-3.374,6.827-4.385,10.572
			C174.718,178.667,192.936,165.783,205.538,148.521z"/>
	</g>
	<g>
		<circle style="fill:#FCD770;" cx="128" cy="92.017" r="83.961"/>
	</g>
	<g>
		<path style="fill:#FFC729;" d="M132.236,87.889l-0.238,0.129l-48.653,24.326c-12.692,1.65-23.28,9.913-28.252,21.209
			c11.977,20.976,32.701,36.273,57.237,40.91c7.158-6.577,11.671-15.986,11.671-26.473c0-1.961-0.2-3.871-0.501-5.747L151.989,128
			l1.46-0.716l2.538,4.714l15.993-7.996v-11.994L128,80.022L132.236,87.889z"/>
	</g>
	<g>
		<polygon style="fill:#8C95A4;" points="72.026,116.006 28.046,139.994 40.041,163.983 64.03,150.899 102.46,130.475 		"/>
	</g>
	<g>
		<polygon style="fill:#798699;" points="40.041,163.983 51.464,157.752 39.47,133.763 28.046,139.994 		"/>
	</g>
	<g>
		<polygon style="fill:#798699;" points="61.519,121.737 74.286,145.448 90.069,137.061 81.038,120.29 72.026,116.006 		"/>
	</g>
	<g>
		<circle style="fill:#FCD770;" cx="88.018" cy="147.991" r="23.989"/>
	</g>
	<g>
		<rect x="60.031" y="199.967" style="fill:#B27946;" width="55.974" height="15.993"/>
	</g>
	<g>
		<polygon style="fill:#EABD8C;" points="76.024,159.985 40.041,231.952 60.031,231.952 88.018,175.978 116.006,231.952 
			135.996,231.952 100.013,159.985 		"/>
	</g>
	<g>
		<path style="fill:#D3A06C;" d="M100.013,159.985H76.024l-8.705,17.41c4.859,3.427,10.59,5.693,16.81,6.362
			c0.931-1.862,3.889-7.779,3.889-7.779l3.889,7.779c6.22-0.669,11.951-2.935,16.81-6.362L100.013,159.985z"/>
	</g>
	<g>
		<polygon style="fill:#8C95A4;" points="131.998,76.024 68.028,108.009 77.295,126.544 109.466,137.267 151.989,116.006 
			163.691,110.272 141.623,70.798 		"/>
	</g>
	<g>
		<path style="fill:#FFFFFF;" d="M92.021,110.738c-1.468,0-2.877-0.808-3.58-2.21c-0.988-1.976-0.188-4.377,1.788-5.365
			l23.989-11.994c1.976-0.976,4.373-0.188,5.365,1.788c0.988,1.975,0.188,4.377-1.788,5.364l-23.989,11.994
			C93.231,110.602,92.622,110.738,92.021,110.738z"/>
	</g>
	<g>
		<path style="fill:#798699;" d="M88.018,112.007c-5.787,0-11.235,1.399-16.079,3.826l0.086,0.172l-4.637,2.529
			c-9.276,6.508-15.354,17.264-15.354,29.456c0,3.053,0.421,6,1.137,8.83l10.857-5.922l33.277-17.684l12.16,4.053l10.71-5.355
			C114.268,120.12,102.105,112.007,88.018,112.007z"/>
	</g>
	<g>
		<circle style="fill:#FEA82F;" cx="88.018" cy="147.991" r="23.989"/>
	</g>
	<g>
		<path style="fill:#ECECEC;" d="M199.967,68.028L199.967,68.028c-15.36,0-30.091-6.102-40.952-16.963l-7.026-7.026l7.026-7.026
			c10.861-10.861,25.592-16.963,40.952-16.963l0,0c15.36,0,30.091,6.102,40.952,16.963l7.026,7.026l-7.026,7.026
			C230.057,61.926,215.327,68.028,199.967,68.028z"/>
	</g>
	<g>
		<circle style="fill:#8C95A4;" cx="199.967" cy="44.039" r="23.989"/>
	</g>
	<g>
		<circle style="fill:#EABD8C;" cx="199.967" cy="44.039" r="7.996"/>
	</g>
	<g>
		<circle style="fill:#FCD770;" cx="88.018" cy="147.991" r="7.996"/>
	</g>
	<g>
		
			<rect x="17.107" y="133.637" transform="matrix(0.8944 -0.4472 0.4472 0.8944 -67.0097 28.1166)" style="fill:#8C95A4;" width="17.88" height="44.701"/>
	</g>
	<g>
		<path style="fill:#FFFFFF;" d="M64.385,72.026c-0.469,0-0.945-0.082-1.413-0.258c-2.065-0.781-3.108-3.084-2.327-5.154
			c7.809-20.686,25.074-36.913,46.19-43.402c2.12-0.656,4.346,0.539,4.998,2.647c0.648,2.112-0.539,4.35-2.648,4.998
			c-18.769,5.767-34.117,20.19-41.059,38.584C67.52,71.042,66.001,72.026,64.385,72.026z"/>
	</g>
	<g>
		<circle style="fill:#FFFFFF;" cx="60.031" cy="84.02" r="3.998"/>
	</g>
	<g>
		<polygon style="fill:#798699;" points="131.998,76.024 121.094,81.476 142.296,120.852 151.989,116.006 158.316,112.906 
			136.995,73.311 		"/>
	</g>
	<g>
		<polygon style="fill:#8C95A4;" points="143.993,60.031 128,68.028 155.987,120.004 171.98,112.007 		"/>
	</g>
	<g>
		<polygon style="fill:#B27946;" points="116.006,231.952 135.996,231.952 131.998,223.956 112.007,223.956 		"/>
	</g>
	<g>
		<path style="fill:#B27946;" d="M64.03,223.956H44.039l-3.998,7.996h19.991C60.031,231.952,63.05,225.914,64.03,223.956z"/>
	</g>
</g>
</svg>
