<?xml version="1.0" encoding="iso-8859-1"?>
<!-- Generator: Adobe Illustrator 25.0.0, SVG Export Plug-In . SVG Version: 6.00 Build 0)  -->
<svg version="1.1" id="Layer_1" xmlns="http://www.w3.org/2000/svg" xmlns:xlink="http://www.w3.org/1999/xlink" x="0px" y="0px"
	 viewBox="0 0 256 256" style="enable-background:new 0 0 256 256;" xml:space="preserve">
<g>
	<g>
		<rect x="61.017" y="146.606" style="fill:#B6C1CE;" width="22.327" height="29.77"/>
	</g>
	<g>
		<rect x="202.424" y="157.77" style="fill:#FEA82F;" width="14.885" height="78.146"/>
	</g>
	<g>
		<rect x="172.654" y="172.655" style="fill:#FEA82F;" width="14.885" height="63.261"/>
	</g>
	<g>
		<rect x="142.884" y="187.54" style="fill:#FEA82F;" width="14.885" height="48.376"/>
	</g>
	<g>
		<rect x="113.114" y="202.425" style="fill:#FEA82F;" width="14.885" height="33.491"/>
	</g>
	<g>
		<rect x="113.114" y="224.752" style="fill:#FF8031;" width="14.885" height="11.164"/>
	</g>
	<g>
		<rect x="142.884" y="224.752" style="fill:#FF8031;" width="14.885" height="11.164"/>
	</g>
	<g>
		<rect x="172.654" y="224.752" style="fill:#FF8031;" width="14.885" height="11.164"/>
	</g>
	<g>
		<rect x="202.424" y="224.752" style="fill:#FF8031;" width="14.885" height="11.164"/>
	</g>
	<g>
		<path style="fill:#FCD770;" d="M72.181,239.637L72.181,239.637c8.221,0,14.885-6.664,14.885-14.885v-55.818h-29.77v55.818
			C57.296,232.973,63.96,239.637,72.181,239.637z"/>
	</g>
	<g>
		<circle style="fill:#ECECEC;" cx="72.181" cy="98.23" r="55.819"/>
	</g>
	<g>
		<circle style="fill:#39C3FC;" cx="72.181" cy="98.23" r="40.934"/>
	</g>
	<g>
		<g>
			<path style="fill:#FFFFFF;" d="M42.411,101.951c-2.057,0-3.721-1.665-3.721-3.721c0-18.468,15.023-33.491,33.491-33.491
				c2.057,0,3.721,1.665,3.721,3.721s-1.665,3.721-3.721,3.721c-14.362,0-26.049,11.687-26.049,26.049
				C46.132,100.287,44.467,101.951,42.411,101.951z"/>
		</g>
	</g>
	<g>
		<path style="fill:#FFC729;" d="M75.902,168.934v55.818c0,6.243-3.853,11.571-9.303,13.781c1.726,0.7,3.605,1.104,5.582,1.104
			c8.221,0,14.885-6.664,14.885-14.885v-55.818H75.902z"/>
	</g>
	<g>
		<path style="fill:#FB5968;" d="M239.603,90.622c-0.014-0.321-0.104-0.621-0.2-0.929c-0.054-0.175-0.074-0.354-0.154-0.518
			c-0.135-0.279-0.35-0.512-0.557-0.756c-0.115-0.135-0.178-0.304-0.312-0.423c-0.017-0.016-0.043-0.019-0.061-0.034
			c-0.016-0.013-0.022-0.033-0.038-0.046c-0.3-0.246-0.643-0.386-0.985-0.525c-0.105-0.042-0.189-0.125-0.297-0.158
			c-0.49-0.15-1-0.191-1.501-0.134c-0.016,0.001-0.03-0.006-0.045-0.004l-29.77,3.721c-2.039,0.255-3.485,2.115-3.231,4.154
			c0.258,2.039,2.115,3.46,4.154,3.231l20.493-2.561l-3.507,4.258c-27.466,33.353-63.523,58.584-104.275,72.967
			c-1.937,0.687-2.954,2.813-2.271,4.75c0.542,1.526,1.977,2.482,3.511,2.482c0.411,0,0.829-0.069,1.239-0.211
			c42.028-14.838,79.214-40.861,107.538-75.257l2.86-3.472v19.4c0,2.057,1.665,3.721,3.721,3.721c2.057,0,3.721-1.665,3.721-3.721
			v-29.77C239.638,90.73,239.605,90.679,239.603,90.622z"/>
	</g>
	<g>
		<g>
			<path style="fill:#B27946;" d="M90.787,172.655H53.574c-2.057,0-3.721-1.665-3.721-3.721c0-2.057,1.664-3.721,3.721-3.721h37.212
				c2.057,0,3.721,1.665,3.721,3.721C94.508,170.99,92.843,172.655,90.787,172.655z"/>
		</g>
	</g>
	<g>
		<g>
			<path style="fill:#FCD770;" d="M72.177,101.951c-0.767,0-1.541-0.236-2.202-0.727c-1.657-1.218-2.009-3.547-0.789-5.2
				l52.097-70.703c0.629-0.857,1.595-1.403,2.649-1.501c1.09-0.105,2.108,0.265,2.885,0.985l53.089,49.553l45.84-49.365
				c1.392-1.508,3.75-1.592,5.258-0.192c1.505,1.395,1.592,3.75,0.192,5.258l-48.376,52.097c-0.672,0.723-1.606,1.152-2.591,1.184
				c-1.05,0.084-1.951-0.323-2.674-0.996l-52.762-49.248l-49.619,67.338C74.448,101.428,73.318,101.951,72.177,101.951z"/>
		</g>
	</g>
	<g>
		<circle style="fill:#B27946;" cx="235.915" cy="235.916" r="3.721"/>
	</g>
	<g>
		<circle style="fill:#FB5968;" cx="124.278" cy="27.527" r="11.164"/>
	</g>
	<g>
		<circle style="fill:#FB5968;" cx="228.472" cy="27.527" r="11.164"/>
	</g>
	<g>
		<circle style="fill:#FB5968;" cx="180.096" cy="79.624" r="11.164"/>
	</g>
	<g>
		<circle style="fill:#FB5968;" cx="72.181" cy="98.23" r="18.606"/>
	</g>
	<g>
		<g>
			<circle style="fill:#B27946;" cx="98.229" cy="235.916" r="3.721"/>
		</g>
	</g>
	<g>
		<g>
			<path style="fill:#B27946;" d="M221.03,239.637H109.393c-2.057,0-3.721-1.665-3.721-3.721c0-2.057,1.664-3.721,3.721-3.721
				H221.03c2.057,0,3.721,1.665,3.721,3.721C224.751,237.973,223.087,239.637,221.03,239.637z"/>
		</g>
	</g>
	<g>
		<circle style="fill:#FFFFFF;" cx="46.132" cy="112.159" r="3.721"/>
	</g>
</g>
</svg>
